# xmcd CD database file
#
# Track frame offsets:
#	150
#	34077
#	66450
#	89985
#	116129
#
# Disc length: 1973 seconds
#
# Revision: 0
# Processed by: cddbd v1.5.2PL0 Copyright (c) Steve Scherf et al.
# Submitted via: CDex 1.51
#
DISCID=4b07b305
DTITLE=WYNTON KELLY - KELLY at midnite
DYEAR=1960
DGENRE=Jazz
TTITLE0=TEMPERANCE
TTITLE1=WEIRD LULLABY
TTITLE2=ON STAGE
TTITLE3=SKATIN'
TTITLE4=POT LUCK
EXTD=YEAR: 1960
EXTT0=
EXTT1=
EXTT2=
EXTT3=
EXTT4=
PLAYORDER=
